<svg xmlns="http://www.w3.org/2000/svg" width="880" height="440" viewBox="0 0 880 440" role="img" aria-label="Daily candlestick chart of GitHub stars for Mukbeast4/star-candles">
<rect width="880" height="440" rx="8" fill="#1a1a19"/>
<text x="24" y="42" font-family="system-ui, -apple-system, 'Segoe UI', sans-serif" font-size="13" fill="#c3c2b7">Mukbeast4/star-candles · Daily</text>
<text x="24" y="74" font-family="system-ui, -apple-system, 'Segoe UI', sans-serif"><tspan font-size="28" font-weight="600" fill="#ffffff">1</tspan><tspan dx="8" font-size="13" fill="#c3c2b7">stars</tspan></text>
<line x1="24.0" y1="390.0" x2="792.0" y2="390.0" stroke="#2c2c2a" stroke-width="1"/>
<text x="802.0" y="390.0" dy="0.35em" font-family="system-ui, -apple-system, 'Segoe UI', sans-serif" font-size="11" fill="#898781" style="font-variant-numeric: tabular-nums">0</text>
<line x1="24.0" y1="239.0" x2="792.0" y2="239.0" stroke="#2c2c2a" stroke-width="1"/>
<text x="802.0" y="239.0" dy="0.35em" font-family="system-ui, -apple-system, 'Segoe UI', sans-serif" font-size="11" fill="#898781" style="font-variant-numeric: tabular-nums">1</text>
<line x1="24.0" y1="88.0" x2="792.0" y2="88.0" stroke="#2c2c2a" stroke-width="1"/>
<text x="802.0" y="88.0" dy="0.35em" font-family="system-ui, -apple-system, 'Segoe UI', sans-serif" font-size="11" fill="#898781" style="font-variant-numeric: tabular-nums">2</text>
<line x1="31.8" y1="390.0" x2="31.8" y2="390.0" stroke="#199e70" stroke-width="1"/>
<rect x="25.8" y="390.0" width="12.2" height="0.5" rx="1" fill="#1a1a19" stroke="#199e70" stroke-width="1.5"/>
<text x="31.8" y="408.0" text-anchor="middle" font-family="system-ui, -apple-system, 'Segoe UI', sans-serif" font-size="11" fill="#898781">Jul 28</text>
<line x1="47.5" y1="390.0" x2="47.5" y2="390.0" stroke="#199e70" stroke-width="1"/>
<rect x="41.4" y="390.0" width="12.2" height="0.5" rx="1" fill="#1a1a19" stroke="#199e70" stroke-width="1.5"/>
<line x1="63.2" y1="390.0" x2="63.2" y2="390.0" stroke="#199e70" stroke-width="1"/>
<rect x="57.1" y="390.0" width="12.2" height="0.5" rx="1" fill="#1a1a19" stroke="#199e70" stroke-width="1.5"/>
<line x1="78.9" y1="390.0" x2="78.9" y2="390.0" stroke="#199e70" stroke-width="1"/>
<rect x="72.8" y="390.0" width="12.2" height="0.5" rx="1" fill="#1a1a19" stroke="#199e70" stroke-width="1.5"/>
<line x1="94.5" y1="390.0" x2="94.5" y2="390.0" stroke="#199e70" stroke-width="1"/>
<rect x="88.4" y="390.0" width="12.2" height="0.5" rx="1" fill="#1a1a19" stroke="#199e70" stroke-width="1.5"/>
<line x1="110.2" y1="390.0" x2="110.2" y2="390.0" stroke="#199e70" stroke-width="1"/>
<rect x="104.1" y="390.0" width="12.2" height="0.5" rx="1" fill="#1a1a19" stroke="#199e70" stroke-width="1.5"/>
<line x1="125.9" y1="390.0" x2="125.9" y2="390.0" stroke="#199e70" stroke-width="1"/>
<rect x="119.8" y="390.0" width="12.2" height="0.5" rx="1" fill="#1a1a19" stroke="#199e70" stroke-width="1.5"/>
<line x1="141.6" y1="390.0" x2="141.6" y2="390.0" stroke="#199e70" stroke-width="1"/>
<rect x="135.5" y="390.0" width="12.2" height="0.5" rx="1" fill="#1a1a19" stroke="#199e70" stroke-width="1.5"/>
<line x1="157.2" y1="390.0" x2="157.2" y2="390.0" stroke="#199e70" stroke-width="1"/>
<rect x="151.1" y="390.0" width="12.2" height="0.5" rx="1" fill="#1a1a19" stroke="#199e70" stroke-width="1.5"/>
<line x1="172.9" y1="390.0" x2="172.9" y2="390.0" stroke="#199e70" stroke-width="1"/>
<rect x="166.8" y="390.0" width="12.2" height="0.5" rx="1" fill="#1a1a19" stroke="#199e70" stroke-width="1.5"/>
<text x="172.9" y="408.0" text-anchor="middle" font-family="system-ui, -apple-system, 'Segoe UI', sans-serif" font-size="11" fill="#898781">Aug 6</text>
<line x1="188.6" y1="390.0" x2="188.6" y2="390.0" stroke="#199e70" stroke-width="1"/>
<rect x="182.5" y="390.0" width="12.2" height="0.5" rx="1" fill="#1a1a19" stroke="#199e70" stroke-width="1.5"/>
<line x1="204.2" y1="390.0" x2="204.2" y2="390.0" stroke="#199e70" stroke-width="1"/>
<rect x="198.2" y="390.0" width="12.2" height="0.5" rx="1" fill="#1a1a19" stroke="#199e70" stroke-width="1.5"/>
<line x1="219.9" y1="390.0" x2="219.9" y2="390.0" stroke="#199e70" stroke-width="1"/>
<rect x="213.8" y="390.0" width="12.2" height="0.5" rx="1" fill="#1a1a19" stroke="#199e70" stroke-width="1.5"/>
<line x1="235.6" y1="390.0" x2="235.6" y2="390.0" stroke="#199e70" stroke-width="1"/>
<rect x="229.5" y="390.0" width="12.2" height="0.5" rx="1" fill="#1a1a19" stroke="#199e70" stroke-width="1.5"/>
<line x1="251.3" y1="390.0" x2="251.3" y2="390.0" stroke="#199e70" stroke-width="1"/>
<rect x="245.2" y="390.0" width="12.2" height="0.5" rx="1" fill="#1a1a19" stroke="#199e70" stroke-width="1.5"/>
<line x1="266.9" y1="390.0" x2="266.9" y2="390.0" stroke="#199e70" stroke-width="1"/>
<rect x="260.9" y="390.0" width="12.2" height="0.5" rx="1" fill="#1a1a19" stroke="#199e70" stroke-width="1.5"/>
<line x1="282.6" y1="390.0" x2="282.6" y2="390.0" stroke="#199e70" stroke-width="1"/>
<rect x="276.5" y="390.0" width="12.2" height="0.5" rx="1" fill="#1a1a19" stroke="#199e70" stroke-width="1.5"/>
<line x1="298.3" y1="390.0" x2="298.3" y2="390.0" stroke="#199e70" stroke-width="1"/>
<rect x="292.2" y="390.0" width="12.2" height="0.5" rx="1" fill="#1a1a19" stroke="#199e70" stroke-width="1.5"/>
<line x1="314.0" y1="390.0" x2="314.0" y2="390.0" stroke="#199e70" stroke-width="1"/>
<rect x="307.9" y="390.0" width="12.2" height="0.5" rx="1" fill="#1a1a19" stroke="#199e70" stroke-width="1.5"/>
<text x="314.0" y="408.0" text-anchor="middle" font-family="system-ui, -apple-system, 'Segoe UI', sans-serif" font-size="11" fill="#898781">Aug 15</text>
<line x1="329.6" y1="390.0" x2="329.6" y2="390.0" stroke="#199e70" stroke-width="1"/>
<rect x="323.5" y="390.0" width="12.2" height="0.5" rx="1" fill="#1a1a19" stroke="#199e70" stroke-width="1.5"/>
<line x1="345.3" y1="390.0" x2="345.3" y2="390.0" stroke="#199e70" stroke-width="1"/>
<rect x="339.2" y="390.0" width="12.2" height="0.5" rx="1" fill="#1a1a19" stroke="#199e70" stroke-width="1.5"/>
<line x1="361.0" y1="390.0" x2="361.0" y2="390.0" stroke="#199e70" stroke-width="1"/>
<rect x="354.9" y="390.0" width="12.2" height="0.5" rx="1" fill="#1a1a19" stroke="#199e70" stroke-width="1.5"/>
<line x1="376.7" y1="390.0" x2="376.7" y2="390.0" stroke="#199e70" stroke-width="1"/>
<rect x="370.6" y="390.0" width="12.2" height="0.5" rx="1" fill="#1a1a19" stroke="#199e70" stroke-width="1.5"/>
<line x1="392.3" y1="390.0" x2="392.3" y2="390.0" stroke="#199e70" stroke-width="1"/>
<rect x="386.2" y="390.0" width="12.2" height="0.5" rx="1" fill="#1a1a19" stroke="#199e70" stroke-width="1.5"/>
<line x1="408.0" y1="390.0" x2="408.0" y2="390.0" stroke="#199e70" stroke-width="1"/>
<rect x="401.9" y="390.0" width="12.2" height="0.5" rx="1" fill="#1a1a19" stroke="#199e70" stroke-width="1.5"/>
<line x1="423.7" y1="390.0" x2="423.7" y2="390.0" stroke="#199e70" stroke-width="1"/>
<rect x="417.6" y="390.0" width="12.2" height="0.5" rx="1" fill="#1a1a19" stroke="#199e70" stroke-width="1.5"/>
<line x1="439.3" y1="239.0" x2="439.3" y2="390.0" stroke="#199e70" stroke-width="1"/>
<rect x="433.3" y="239.8" width="12.2" height="149.5" rx="1" fill="#1a1a19" stroke="#199e70" stroke-width="1.5"/>
<line x1="455.0" y1="239.0" x2="455.0" y2="239.0" stroke="#199e70" stroke-width="1"/>
<rect x="448.9" y="239.0" width="12.2" height="0.5" rx="1" fill="#1a1a19" stroke="#199e70" stroke-width="1.5"/>
<text x="455.0" y="408.0" text-anchor="middle" font-family="system-ui, -apple-system, 'Segoe UI', sans-serif" font-size="11" fill="#898781">Aug 24</text>
<line x1="470.7" y1="239.0" x2="470.7" y2="239.0" stroke="#199e70" stroke-width="1"/>
<rect x="464.6" y="239.0" width="12.2" height="0.5" rx="1" fill="#1a1a19" stroke="#199e70" stroke-width="1.5"/>
<line x1="486.4" y1="239.0" x2="486.4" y2="239.0" stroke="#199e70" stroke-width="1"/>
<rect x="480.3" y="239.0" width="12.2" height="0.5" rx="1" fill="#1a1a19" stroke="#199e70" stroke-width="1.5"/>
<line x1="502.0" y1="239.0" x2="502.0" y2="239.0" stroke="#199e70" stroke-width="1"/>
<rect x="496.0" y="239.0" width="12.2" height="0.5" rx="1" fill="#1a1a19" stroke="#199e70" stroke-width="1.5"/>
<line x1="517.7" y1="239.0" x2="517.7" y2="239.0" stroke="#199e70" stroke-width="1"/>
<rect x="511.6" y="239.0" width="12.2" height="0.5" rx="1" fill="#1a1a19" stroke="#199e70" stroke-width="1.5"/>
<line x1="533.4" y1="239.0" x2="533.4" y2="239.0" stroke="#199e70" stroke-width="1"/>
<rect x="527.3" y="239.0" width="12.2" height="0.5" rx="1" fill="#1a1a19" stroke="#199e70" stroke-width="1.5"/>
<line x1="549.1" y1="239.0" x2="549.1" y2="239.0" stroke="#199e70" stroke-width="1"/>
<rect x="543.0" y="239.0" width="12.2" height="0.5" rx="1" fill="#1a1a19" stroke="#199e70" stroke-width="1.5"/>
<line x1="564.7" y1="239.0" x2="564.7" y2="239.0" stroke="#199e70" stroke-width="1"/>
<rect x="558.6" y="239.0" width="12.2" height="0.5" rx="1" fill="#1a1a19" stroke="#199e70" stroke-width="1.5"/>
<line x1="580.4" y1="239.0" x2="580.4" y2="239.0" stroke="#199e70" stroke-width="1"/>
<rect x="574.3" y="239.0" width="12.2" height="0.5" rx="1" fill="#1a1a19" stroke="#199e70" stroke-width="1.5"/>
<line x1="596.1" y1="239.0" x2="596.1" y2="239.0" stroke="#199e70" stroke-width="1"/>
<rect x="590.0" y="239.0" width="12.2" height="0.5" rx="1" fill="#1a1a19" stroke="#199e70" stroke-width="1.5"/>
<text x="596.1" y="408.0" text-anchor="middle" font-family="system-ui, -apple-system, 'Segoe UI', sans-serif" font-size="11" fill="#898781">Sep 2</text>
<line x1="611.8" y1="239.0" x2="611.8" y2="239.0" stroke="#199e70" stroke-width="1"/>
<rect x="605.7" y="239.0" width="12.2" height="0.5" rx="1" fill="#1a1a19" stroke="#199e70" stroke-width="1.5"/>
<line x1="627.4" y1="239.0" x2="627.4" y2="239.0" stroke="#199e70" stroke-width="1"/>
<rect x="621.3" y="239.0" width="12.2" height="0.5" rx="1" fill="#1a1a19" stroke="#199e70" stroke-width="1.5"/>
<line x1="643.1" y1="239.0" x2="643.1" y2="239.0" stroke="#199e70" stroke-width="1"/>
<rect x="637.0" y="239.0" width="12.2" height="0.5" rx="1" fill="#1a1a19" stroke="#199e70" stroke-width="1.5"/>
<line x1="658.8" y1="239.0" x2="658.8" y2="239.0" stroke="#199e70" stroke-width="1"/>
<rect x="652.7" y="239.0" width="12.2" height="0.5" rx="1" fill="#1a1a19" stroke="#199e70" stroke-width="1.5"/>
<line x1="674.4" y1="239.0" x2="674.4" y2="239.0" stroke="#199e70" stroke-width="1"/>
<rect x="668.4" y="239.0" width="12.2" height="0.5" rx="1" fill="#1a1a19" stroke="#199e70" stroke-width="1.5"/>
<line x1="690.1" y1="239.0" x2="690.1" y2="239.0" stroke="#199e70" stroke-width="1"/>
<rect x="684.0" y="239.0" width="12.2" height="0.5" rx="1" fill="#1a1a19" stroke="#199e70" stroke-width="1.5"/>
<line x1="705.8" y1="239.0" x2="705.8" y2="239.0" stroke="#199e70" stroke-width="1"/>
<rect x="699.7" y="239.0" width="12.2" height="0.5" rx="1" fill="#1a1a19" stroke="#199e70" stroke-width="1.5"/>
<line x1="721.5" y1="239.0" x2="721.5" y2="239.0" stroke="#199e70" stroke-width="1"/>
<rect x="715.4" y="239.0" width="12.2" height="0.5" rx="1" fill="#1a1a19" stroke="#199e70" stroke-width="1.5"/>
<line x1="737.1" y1="239.0" x2="737.1" y2="239.0" stroke="#199e70" stroke-width="1"/>
<rect x="731.1" y="239.0" width="12.2" height="0.5" rx="1" fill="#1a1a19" stroke="#199e70" stroke-width="1.5"/>
<text x="737.1" y="408.0" text-anchor="middle" font-family="system-ui, -apple-system, 'Segoe UI', sans-serif" font-size="11" fill="#898781">Sep 11</text>
<line x1="752.8" y1="239.0" x2="752.8" y2="239.0" stroke="#199e70" stroke-width="1"/>
<rect x="746.7" y="239.0" width="12.2" height="0.5" rx="1" fill="#1a1a19" stroke="#199e70" stroke-width="1.5"/>
<line x1="768.5" y1="239.0" x2="768.5" y2="239.0" stroke="#199e70" stroke-width="1"/>
<rect x="762.4" y="239.0" width="12.2" height="0.5" rx="1" fill="#1a1a19" stroke="#199e70" stroke-width="1.5"/>
<line x1="784.2" y1="239.0" x2="784.2" y2="239.0" stroke="#199e70" stroke-width="1"/>
<rect x="778.1" y="239.0" width="12.2" height="0.5" rx="1" fill="#1a1a19" stroke="#199e70" stroke-width="1.5"/>
<rect x="0.5" y="0.5" width="879" height="439" rx="8" fill="none" stroke="rgba(255,255,255,0.10)"/>
</svg>
