<svg xmlns="http://www.w3.org/2000/svg" width="880" height="440" viewBox="0 0 880 440" role="img" aria-label="Daily candlestick chart of GitHub stars for Mukbeast4/star-candles">
<rect width="880" height="440" rx="8" fill="#fcfcfb"/>
<text x="24" y="42" font-family="system-ui, -apple-system, 'Segoe UI', sans-serif" font-size="13" fill="#52514e">Mukbeast4/star-candles · Daily</text>
<text x="24" y="74" font-family="system-ui, -apple-system, 'Segoe UI', sans-serif"><tspan font-size="28" font-weight="600" fill="#0b0b0b">1</tspan><tspan dx="8" font-size="13" fill="#52514e">stars</tspan></text>
<line x1="24.0" y1="390.0" x2="792.0" y2="390.0" stroke="#e1e0d9" stroke-width="1"/>
<text x="802.0" y="390.0" dy="0.35em" font-family="system-ui, -apple-system, 'Segoe UI', sans-serif" font-size="11" fill="#898781" style="font-variant-numeric: tabular-nums">0</text>
<line x1="24.0" y1="239.0" x2="792.0" y2="239.0" stroke="#e1e0d9" stroke-width="1"/>
<text x="802.0" y="239.0" dy="0.35em" font-family="system-ui, -apple-system, 'Segoe UI', sans-serif" font-size="11" fill="#898781" style="font-variant-numeric: tabular-nums">1</text>
<line x1="24.0" y1="88.0" x2="792.0" y2="88.0" stroke="#e1e0d9" stroke-width="1"/>
<text x="802.0" y="88.0" dy="0.35em" font-family="system-ui, -apple-system, 'Segoe UI', sans-serif" font-size="11" fill="#898781" style="font-variant-numeric: tabular-nums">2</text>
<line x1="34.4" y1="390.0" x2="34.4" y2="390.0" stroke="#199e70" stroke-width="1"/>
<rect x="25.8" y="390.0" width="17.3" height="0.5" rx="1" fill="#fcfcfb" stroke="#199e70" stroke-width="1.5"/>
<text x="34.4" y="408.0" text-anchor="middle" font-family="system-ui, -apple-system, 'Segoe UI', sans-serif" font-size="11" fill="#898781">Jul 28</text>
<line x1="55.1" y1="390.0" x2="55.1" y2="390.0" stroke="#199e70" stroke-width="1"/>
<rect x="46.5" y="390.0" width="17.3" height="0.5" rx="1" fill="#fcfcfb" stroke="#199e70" stroke-width="1.5"/>
<line x1="75.9" y1="390.0" x2="75.9" y2="390.0" stroke="#199e70" stroke-width="1"/>
<rect x="67.3" y="390.0" width="17.3" height="0.5" rx="1" fill="#fcfcfb" stroke="#199e70" stroke-width="1.5"/>
<line x1="96.6" y1="390.0" x2="96.6" y2="390.0" stroke="#199e70" stroke-width="1"/>
<rect x="88.0" y="390.0" width="17.3" height="0.5" rx="1" fill="#fcfcfb" stroke="#199e70" stroke-width="1.5"/>
<line x1="117.4" y1="390.0" x2="117.4" y2="390.0" stroke="#199e70" stroke-width="1"/>
<rect x="108.8" y="390.0" width="17.3" height="0.5" rx="1" fill="#fcfcfb" stroke="#199e70" stroke-width="1.5"/>
<line x1="138.2" y1="390.0" x2="138.2" y2="390.0" stroke="#199e70" stroke-width="1"/>
<rect x="129.5" y="390.0" width="17.3" height="0.5" rx="1" fill="#fcfcfb" stroke="#199e70" stroke-width="1.5"/>
<line x1="158.9" y1="390.0" x2="158.9" y2="390.0" stroke="#199e70" stroke-width="1"/>
<rect x="150.3" y="390.0" width="17.3" height="0.5" rx="1" fill="#fcfcfb" stroke="#199e70" stroke-width="1.5"/>
<line x1="179.7" y1="390.0" x2="179.7" y2="390.0" stroke="#199e70" stroke-width="1"/>
<rect x="171.0" y="390.0" width="17.3" height="0.5" rx="1" fill="#fcfcfb" stroke="#199e70" stroke-width="1.5"/>
<text x="179.7" y="408.0" text-anchor="middle" font-family="system-ui, -apple-system, 'Segoe UI', sans-serif" font-size="11" fill="#898781">Aug 4</text>
<line x1="200.4" y1="390.0" x2="200.4" y2="390.0" stroke="#199e70" stroke-width="1"/>
<rect x="191.8" y="390.0" width="17.3" height="0.5" rx="1" fill="#fcfcfb" stroke="#199e70" stroke-width="1.5"/>
<line x1="221.2" y1="390.0" x2="221.2" y2="390.0" stroke="#199e70" stroke-width="1"/>
<rect x="212.6" y="390.0" width="17.3" height="0.5" rx="1" fill="#fcfcfb" stroke="#199e70" stroke-width="1.5"/>
<line x1="241.9" y1="390.0" x2="241.9" y2="390.0" stroke="#199e70" stroke-width="1"/>
<rect x="233.3" y="390.0" width="17.3" height="0.5" rx="1" fill="#fcfcfb" stroke="#199e70" stroke-width="1.5"/>
<line x1="262.7" y1="390.0" x2="262.7" y2="390.0" stroke="#199e70" stroke-width="1"/>
<rect x="254.1" y="390.0" width="17.3" height="0.5" rx="1" fill="#fcfcfb" stroke="#199e70" stroke-width="1.5"/>
<line x1="283.5" y1="390.0" x2="283.5" y2="390.0" stroke="#199e70" stroke-width="1"/>
<rect x="274.8" y="390.0" width="17.3" height="0.5" rx="1" fill="#fcfcfb" stroke="#199e70" stroke-width="1.5"/>
<line x1="304.2" y1="390.0" x2="304.2" y2="390.0" stroke="#199e70" stroke-width="1"/>
<rect x="295.6" y="390.0" width="17.3" height="0.5" rx="1" fill="#fcfcfb" stroke="#199e70" stroke-width="1.5"/>
<line x1="325.0" y1="390.0" x2="325.0" y2="390.0" stroke="#199e70" stroke-width="1"/>
<rect x="316.3" y="390.0" width="17.3" height="0.5" rx="1" fill="#fcfcfb" stroke="#199e70" stroke-width="1.5"/>
<text x="325.0" y="408.0" text-anchor="middle" font-family="system-ui, -apple-system, 'Segoe UI', sans-serif" font-size="11" fill="#898781">Aug 11</text>
<line x1="345.7" y1="390.0" x2="345.7" y2="390.0" stroke="#199e70" stroke-width="1"/>
<rect x="337.1" y="390.0" width="17.3" height="0.5" rx="1" fill="#fcfcfb" stroke="#199e70" stroke-width="1.5"/>
<line x1="366.5" y1="390.0" x2="366.5" y2="390.0" stroke="#199e70" stroke-width="1"/>
<rect x="357.9" y="390.0" width="17.3" height="0.5" rx="1" fill="#fcfcfb" stroke="#199e70" stroke-width="1.5"/>
<line x1="387.2" y1="390.0" x2="387.2" y2="390.0" stroke="#199e70" stroke-width="1"/>
<rect x="378.6" y="390.0" width="17.3" height="0.5" rx="1" fill="#fcfcfb" stroke="#199e70" stroke-width="1.5"/>
<line x1="408.0" y1="390.0" x2="408.0" y2="390.0" stroke="#199e70" stroke-width="1"/>
<rect x="399.4" y="390.0" width="17.3" height="0.5" rx="1" fill="#fcfcfb" stroke="#199e70" stroke-width="1.5"/>
<line x1="428.8" y1="390.0" x2="428.8" y2="390.0" stroke="#199e70" stroke-width="1"/>
<rect x="420.1" y="390.0" width="17.3" height="0.5" rx="1" fill="#fcfcfb" stroke="#199e70" stroke-width="1.5"/>
<line x1="449.5" y1="390.0" x2="449.5" y2="390.0" stroke="#199e70" stroke-width="1"/>
<rect x="440.9" y="390.0" width="17.3" height="0.5" rx="1" fill="#fcfcfb" stroke="#199e70" stroke-width="1.5"/>
<line x1="470.3" y1="390.0" x2="470.3" y2="390.0" stroke="#199e70" stroke-width="1"/>
<rect x="461.6" y="390.0" width="17.3" height="0.5" rx="1" fill="#fcfcfb" stroke="#199e70" stroke-width="1.5"/>
<text x="470.3" y="408.0" text-anchor="middle" font-family="system-ui, -apple-system, 'Segoe UI', sans-serif" font-size="11" fill="#898781">Aug 18</text>
<line x1="491.0" y1="390.0" x2="491.0" y2="390.0" stroke="#199e70" stroke-width="1"/>
<rect x="482.4" y="390.0" width="17.3" height="0.5" rx="1" fill="#fcfcfb" stroke="#199e70" stroke-width="1.5"/>
<line x1="511.8" y1="390.0" x2="511.8" y2="390.0" stroke="#199e70" stroke-width="1"/>
<rect x="503.2" y="390.0" width="17.3" height="0.5" rx="1" fill="#fcfcfb" stroke="#199e70" stroke-width="1.5"/>
<line x1="532.5" y1="390.0" x2="532.5" y2="390.0" stroke="#199e70" stroke-width="1"/>
<rect x="523.9" y="390.0" width="17.3" height="0.5" rx="1" fill="#fcfcfb" stroke="#199e70" stroke-width="1.5"/>
<line x1="553.3" y1="390.0" x2="553.3" y2="390.0" stroke="#199e70" stroke-width="1"/>
<rect x="544.7" y="390.0" width="17.3" height="0.5" rx="1" fill="#fcfcfb" stroke="#199e70" stroke-width="1.5"/>
<line x1="574.1" y1="239.0" x2="574.1" y2="390.0" stroke="#199e70" stroke-width="1"/>
<rect x="565.4" y="239.8" width="17.3" height="149.5" rx="1" fill="#fcfcfb" stroke="#199e70" stroke-width="1.5"/>
<line x1="594.8" y1="239.0" x2="594.8" y2="239.0" stroke="#199e70" stroke-width="1"/>
<rect x="586.2" y="239.0" width="17.3" height="0.5" rx="1" fill="#fcfcfb" stroke="#199e70" stroke-width="1.5"/>
<line x1="615.6" y1="239.0" x2="615.6" y2="239.0" stroke="#199e70" stroke-width="1"/>
<rect x="606.9" y="239.0" width="17.3" height="0.5" rx="1" fill="#fcfcfb" stroke="#199e70" stroke-width="1.5"/>
<text x="615.6" y="408.0" text-anchor="middle" font-family="system-ui, -apple-system, 'Segoe UI', sans-serif" font-size="11" fill="#898781">Aug 25</text>
<line x1="636.3" y1="239.0" x2="636.3" y2="239.0" stroke="#199e70" stroke-width="1"/>
<rect x="627.7" y="239.0" width="17.3" height="0.5" rx="1" fill="#fcfcfb" stroke="#199e70" stroke-width="1.5"/>
<line x1="657.1" y1="239.0" x2="657.1" y2="239.0" stroke="#199e70" stroke-width="1"/>
<rect x="648.5" y="239.0" width="17.3" height="0.5" rx="1" fill="#fcfcfb" stroke="#199e70" stroke-width="1.5"/>
<line x1="677.8" y1="239.0" x2="677.8" y2="239.0" stroke="#199e70" stroke-width="1"/>
<rect x="669.2" y="239.0" width="17.3" height="0.5" rx="1" fill="#fcfcfb" stroke="#199e70" stroke-width="1.5"/>
<line x1="698.6" y1="239.0" x2="698.6" y2="239.0" stroke="#199e70" stroke-width="1"/>
<rect x="690.0" y="239.0" width="17.3" height="0.5" rx="1" fill="#fcfcfb" stroke="#199e70" stroke-width="1.5"/>
<line x1="719.4" y1="239.0" x2="719.4" y2="239.0" stroke="#199e70" stroke-width="1"/>
<rect x="710.7" y="239.0" width="17.3" height="0.5" rx="1" fill="#fcfcfb" stroke="#199e70" stroke-width="1.5"/>
<line x1="740.1" y1="239.0" x2="740.1" y2="239.0" stroke="#199e70" stroke-width="1"/>
<rect x="731.5" y="239.0" width="17.3" height="0.5" rx="1" fill="#fcfcfb" stroke="#199e70" stroke-width="1.5"/>
<line x1="760.9" y1="239.0" x2="760.9" y2="239.0" stroke="#199e70" stroke-width="1"/>
<rect x="752.2" y="239.0" width="17.3" height="0.5" rx="1" fill="#fcfcfb" stroke="#199e70" stroke-width="1.5"/>
<text x="760.9" y="408.0" text-anchor="middle" font-family="system-ui, -apple-system, 'Segoe UI', sans-serif" font-size="11" fill="#898781">Sep 1</text>
<line x1="781.6" y1="239.0" x2="781.6" y2="239.0" stroke="#199e70" stroke-width="1"/>
<rect x="773.0" y="239.0" width="17.3" height="0.5" rx="1" fill="#fcfcfb" stroke="#199e70" stroke-width="1.5"/>
<rect x="0.5" y="0.5" width="879" height="439" rx="8" fill="none" stroke="rgba(11,11,11,0.10)"/>
</svg>
