<svg xmlns="http://www.w3.org/2000/svg" width="880" height="440" viewBox="0 0 880 440" role="img" aria-label="Daily candlestick chart of GitHub stars for Mukbeast4/star-candles">
<rect width="880" height="440" rx="8" fill="#1a1a19"/>
<text x="24" y="42" font-family="system-ui, -apple-system, 'Segoe UI', sans-serif" font-size="13" fill="#c3c2b7">Mukbeast4/star-candles · Daily</text>
<text x="24" y="74" font-family="system-ui, -apple-system, 'Segoe UI', sans-serif"><tspan font-size="28" font-weight="600" fill="#ffffff">1</tspan><tspan dx="8" font-size="13" fill="#c3c2b7">stars</tspan></text>
<line x1="24.0" y1="390.0" x2="792.0" y2="390.0" stroke="#2c2c2a" stroke-width="1"/>
<text x="802.0" y="390.0" dy="0.35em" font-family="system-ui, -apple-system, 'Segoe UI', sans-serif" font-size="11" fill="#898781" style="font-variant-numeric: tabular-nums">0</text>
<line x1="24.0" y1="239.0" x2="792.0" y2="239.0" stroke="#2c2c2a" stroke-width="1"/>
<text x="802.0" y="239.0" dy="0.35em" font-family="system-ui, -apple-system, 'Segoe UI', sans-serif" font-size="11" fill="#898781" style="font-variant-numeric: tabular-nums">1</text>
<line x1="24.0" y1="88.0" x2="792.0" y2="88.0" stroke="#2c2c2a" stroke-width="1"/>
<text x="802.0" y="88.0" dy="0.35em" font-family="system-ui, -apple-system, 'Segoe UI', sans-serif" font-size="11" fill="#898781" style="font-variant-numeric: tabular-nums">2</text>
<line x1="32.0" y1="390.0" x2="32.0" y2="390.0" stroke="#199e70" stroke-width="1"/>
<rect x="25.8" y="390.0" width="12.5" height="0.5" rx="1" fill="#1a1a19" stroke="#199e70" stroke-width="1.5"/>
<text x="32.0" y="408.0" text-anchor="middle" font-family="system-ui, -apple-system, 'Segoe UI', sans-serif" font-size="11" fill="#898781">Jul 28</text>
<line x1="48.0" y1="390.0" x2="48.0" y2="390.0" stroke="#199e70" stroke-width="1"/>
<rect x="41.8" y="390.0" width="12.5" height="0.5" rx="1" fill="#1a1a19" stroke="#199e70" stroke-width="1.5"/>
<line x1="64.0" y1="390.0" x2="64.0" y2="390.0" stroke="#199e70" stroke-width="1"/>
<rect x="57.8" y="390.0" width="12.5" height="0.5" rx="1" fill="#1a1a19" stroke="#199e70" stroke-width="1.5"/>
<line x1="80.0" y1="390.0" x2="80.0" y2="390.0" stroke="#199e70" stroke-width="1"/>
<rect x="73.8" y="390.0" width="12.5" height="0.5" rx="1" fill="#1a1a19" stroke="#199e70" stroke-width="1.5"/>
<line x1="96.0" y1="390.0" x2="96.0" y2="390.0" stroke="#199e70" stroke-width="1"/>
<rect x="89.8" y="390.0" width="12.5" height="0.5" rx="1" fill="#1a1a19" stroke="#199e70" stroke-width="1.5"/>
<line x1="112.0" y1="390.0" x2="112.0" y2="390.0" stroke="#199e70" stroke-width="1"/>
<rect x="105.8" y="390.0" width="12.5" height="0.5" rx="1" fill="#1a1a19" stroke="#199e70" stroke-width="1.5"/>
<line x1="128.0" y1="390.0" x2="128.0" y2="390.0" stroke="#199e70" stroke-width="1"/>
<rect x="121.8" y="390.0" width="12.5" height="0.5" rx="1" fill="#1a1a19" stroke="#199e70" stroke-width="1.5"/>
<line x1="144.0" y1="390.0" x2="144.0" y2="390.0" stroke="#199e70" stroke-width="1"/>
<rect x="137.8" y="390.0" width="12.5" height="0.5" rx="1" fill="#1a1a19" stroke="#199e70" stroke-width="1.5"/>
<line x1="160.0" y1="390.0" x2="160.0" y2="390.0" stroke="#199e70" stroke-width="1"/>
<rect x="153.8" y="390.0" width="12.5" height="0.5" rx="1" fill="#1a1a19" stroke="#199e70" stroke-width="1.5"/>
<text x="160.0" y="408.0" text-anchor="middle" font-family="system-ui, -apple-system, 'Segoe UI', sans-serif" font-size="11" fill="#898781">Aug 5</text>
<line x1="176.0" y1="390.0" x2="176.0" y2="390.0" stroke="#199e70" stroke-width="1"/>
<rect x="169.8" y="390.0" width="12.5" height="0.5" rx="1" fill="#1a1a19" stroke="#199e70" stroke-width="1.5"/>
<line x1="192.0" y1="390.0" x2="192.0" y2="390.0" stroke="#199e70" stroke-width="1"/>
<rect x="185.8" y="390.0" width="12.5" height="0.5" rx="1" fill="#1a1a19" stroke="#199e70" stroke-width="1.5"/>
<line x1="208.0" y1="390.0" x2="208.0" y2="390.0" stroke="#199e70" stroke-width="1"/>
<rect x="201.8" y="390.0" width="12.5" height="0.5" rx="1" fill="#1a1a19" stroke="#199e70" stroke-width="1.5"/>
<line x1="224.0" y1="390.0" x2="224.0" y2="390.0" stroke="#199e70" stroke-width="1"/>
<rect x="217.8" y="390.0" width="12.5" height="0.5" rx="1" fill="#1a1a19" stroke="#199e70" stroke-width="1.5"/>
<line x1="240.0" y1="390.0" x2="240.0" y2="390.0" stroke="#199e70" stroke-width="1"/>
<rect x="233.8" y="390.0" width="12.5" height="0.5" rx="1" fill="#1a1a19" stroke="#199e70" stroke-width="1.5"/>
<line x1="256.0" y1="390.0" x2="256.0" y2="390.0" stroke="#199e70" stroke-width="1"/>
<rect x="249.8" y="390.0" width="12.5" height="0.5" rx="1" fill="#1a1a19" stroke="#199e70" stroke-width="1.5"/>
<line x1="272.0" y1="390.0" x2="272.0" y2="390.0" stroke="#199e70" stroke-width="1"/>
<rect x="265.8" y="390.0" width="12.5" height="0.5" rx="1" fill="#1a1a19" stroke="#199e70" stroke-width="1.5"/>
<line x1="288.0" y1="390.0" x2="288.0" y2="390.0" stroke="#199e70" stroke-width="1"/>
<rect x="281.8" y="390.0" width="12.5" height="0.5" rx="1" fill="#1a1a19" stroke="#199e70" stroke-width="1.5"/>
<text x="288.0" y="408.0" text-anchor="middle" font-family="system-ui, -apple-system, 'Segoe UI', sans-serif" font-size="11" fill="#898781">Aug 13</text>
<line x1="304.0" y1="390.0" x2="304.0" y2="390.0" stroke="#199e70" stroke-width="1"/>
<rect x="297.8" y="390.0" width="12.5" height="0.5" rx="1" fill="#1a1a19" stroke="#199e70" stroke-width="1.5"/>
<line x1="320.0" y1="390.0" x2="320.0" y2="390.0" stroke="#199e70" stroke-width="1"/>
<rect x="313.8" y="390.0" width="12.5" height="0.5" rx="1" fill="#1a1a19" stroke="#199e70" stroke-width="1.5"/>
<line x1="336.0" y1="390.0" x2="336.0" y2="390.0" stroke="#199e70" stroke-width="1"/>
<rect x="329.8" y="390.0" width="12.5" height="0.5" rx="1" fill="#1a1a19" stroke="#199e70" stroke-width="1.5"/>
<line x1="352.0" y1="390.0" x2="352.0" y2="390.0" stroke="#199e70" stroke-width="1"/>
<rect x="345.8" y="390.0" width="12.5" height="0.5" rx="1" fill="#1a1a19" stroke="#199e70" stroke-width="1.5"/>
<line x1="368.0" y1="390.0" x2="368.0" y2="390.0" stroke="#199e70" stroke-width="1"/>
<rect x="361.8" y="390.0" width="12.5" height="0.5" rx="1" fill="#1a1a19" stroke="#199e70" stroke-width="1.5"/>
<line x1="384.0" y1="390.0" x2="384.0" y2="390.0" stroke="#199e70" stroke-width="1"/>
<rect x="377.8" y="390.0" width="12.5" height="0.5" rx="1" fill="#1a1a19" stroke="#199e70" stroke-width="1.5"/>
<line x1="400.0" y1="390.0" x2="400.0" y2="390.0" stroke="#199e70" stroke-width="1"/>
<rect x="393.8" y="390.0" width="12.5" height="0.5" rx="1" fill="#1a1a19" stroke="#199e70" stroke-width="1.5"/>
<line x1="416.0" y1="390.0" x2="416.0" y2="390.0" stroke="#199e70" stroke-width="1"/>
<rect x="409.8" y="390.0" width="12.5" height="0.5" rx="1" fill="#1a1a19" stroke="#199e70" stroke-width="1.5"/>
<text x="416.0" y="408.0" text-anchor="middle" font-family="system-ui, -apple-system, 'Segoe UI', sans-serif" font-size="11" fill="#898781">Aug 21</text>
<line x1="432.0" y1="390.0" x2="432.0" y2="390.0" stroke="#199e70" stroke-width="1"/>
<rect x="425.8" y="390.0" width="12.5" height="0.5" rx="1" fill="#1a1a19" stroke="#199e70" stroke-width="1.5"/>
<line x1="448.0" y1="239.0" x2="448.0" y2="390.0" stroke="#199e70" stroke-width="1"/>
<rect x="441.8" y="239.8" width="12.5" height="149.5" rx="1" fill="#1a1a19" stroke="#199e70" stroke-width="1.5"/>
<line x1="464.0" y1="239.0" x2="464.0" y2="239.0" stroke="#199e70" stroke-width="1"/>
<rect x="457.8" y="239.0" width="12.5" height="0.5" rx="1" fill="#1a1a19" stroke="#199e70" stroke-width="1.5"/>
<line x1="480.0" y1="239.0" x2="480.0" y2="239.0" stroke="#199e70" stroke-width="1"/>
<rect x="473.8" y="239.0" width="12.5" height="0.5" rx="1" fill="#1a1a19" stroke="#199e70" stroke-width="1.5"/>
<line x1="496.0" y1="239.0" x2="496.0" y2="239.0" stroke="#199e70" stroke-width="1"/>
<rect x="489.8" y="239.0" width="12.5" height="0.5" rx="1" fill="#1a1a19" stroke="#199e70" stroke-width="1.5"/>
<line x1="512.0" y1="239.0" x2="512.0" y2="239.0" stroke="#199e70" stroke-width="1"/>
<rect x="505.8" y="239.0" width="12.5" height="0.5" rx="1" fill="#1a1a19" stroke="#199e70" stroke-width="1.5"/>
<line x1="528.0" y1="239.0" x2="528.0" y2="239.0" stroke="#199e70" stroke-width="1"/>
<rect x="521.8" y="239.0" width="12.5" height="0.5" rx="1" fill="#1a1a19" stroke="#199e70" stroke-width="1.5"/>
<line x1="544.0" y1="239.0" x2="544.0" y2="239.0" stroke="#199e70" stroke-width="1"/>
<rect x="537.8" y="239.0" width="12.5" height="0.5" rx="1" fill="#1a1a19" stroke="#199e70" stroke-width="1.5"/>
<text x="544.0" y="408.0" text-anchor="middle" font-family="system-ui, -apple-system, 'Segoe UI', sans-serif" font-size="11" fill="#898781">Aug 29</text>
<line x1="560.0" y1="239.0" x2="560.0" y2="239.0" stroke="#199e70" stroke-width="1"/>
<rect x="553.8" y="239.0" width="12.5" height="0.5" rx="1" fill="#1a1a19" stroke="#199e70" stroke-width="1.5"/>
<line x1="576.0" y1="239.0" x2="576.0" y2="239.0" stroke="#199e70" stroke-width="1"/>
<rect x="569.8" y="239.0" width="12.5" height="0.5" rx="1" fill="#1a1a19" stroke="#199e70" stroke-width="1.5"/>
<line x1="592.0" y1="239.0" x2="592.0" y2="239.0" stroke="#199e70" stroke-width="1"/>
<rect x="585.8" y="239.0" width="12.5" height="0.5" rx="1" fill="#1a1a19" stroke="#199e70" stroke-width="1.5"/>
<line x1="608.0" y1="239.0" x2="608.0" y2="239.0" stroke="#199e70" stroke-width="1"/>
<rect x="601.8" y="239.0" width="12.5" height="0.5" rx="1" fill="#1a1a19" stroke="#199e70" stroke-width="1.5"/>
<line x1="624.0" y1="239.0" x2="624.0" y2="239.0" stroke="#199e70" stroke-width="1"/>
<rect x="617.8" y="239.0" width="12.5" height="0.5" rx="1" fill="#1a1a19" stroke="#199e70" stroke-width="1.5"/>
<line x1="640.0" y1="239.0" x2="640.0" y2="239.0" stroke="#199e70" stroke-width="1"/>
<rect x="633.8" y="239.0" width="12.5" height="0.5" rx="1" fill="#1a1a19" stroke="#199e70" stroke-width="1.5"/>
<line x1="656.0" y1="239.0" x2="656.0" y2="239.0" stroke="#199e70" stroke-width="1"/>
<rect x="649.8" y="239.0" width="12.5" height="0.5" rx="1" fill="#1a1a19" stroke="#199e70" stroke-width="1.5"/>
<line x1="672.0" y1="239.0" x2="672.0" y2="239.0" stroke="#199e70" stroke-width="1"/>
<rect x="665.8" y="239.0" width="12.5" height="0.5" rx="1" fill="#1a1a19" stroke="#199e70" stroke-width="1.5"/>
<text x="672.0" y="408.0" text-anchor="middle" font-family="system-ui, -apple-system, 'Segoe UI', sans-serif" font-size="11" fill="#898781">Sep 6</text>
<line x1="688.0" y1="239.0" x2="688.0" y2="239.0" stroke="#199e70" stroke-width="1"/>
<rect x="681.8" y="239.0" width="12.5" height="0.5" rx="1" fill="#1a1a19" stroke="#199e70" stroke-width="1.5"/>
<line x1="704.0" y1="239.0" x2="704.0" y2="239.0" stroke="#199e70" stroke-width="1"/>
<rect x="697.8" y="239.0" width="12.5" height="0.5" rx="1" fill="#1a1a19" stroke="#199e70" stroke-width="1.5"/>
<line x1="720.0" y1="239.0" x2="720.0" y2="239.0" stroke="#199e70" stroke-width="1"/>
<rect x="713.8" y="239.0" width="12.5" height="0.5" rx="1" fill="#1a1a19" stroke="#199e70" stroke-width="1.5"/>
<line x1="736.0" y1="239.0" x2="736.0" y2="239.0" stroke="#199e70" stroke-width="1"/>
<rect x="729.8" y="239.0" width="12.5" height="0.5" rx="1" fill="#1a1a19" stroke="#199e70" stroke-width="1.5"/>
<line x1="752.0" y1="239.0" x2="752.0" y2="239.0" stroke="#199e70" stroke-width="1"/>
<rect x="745.8" y="239.0" width="12.5" height="0.5" rx="1" fill="#1a1a19" stroke="#199e70" stroke-width="1.5"/>
<line x1="768.0" y1="239.0" x2="768.0" y2="239.0" stroke="#199e70" stroke-width="1"/>
<rect x="761.8" y="239.0" width="12.5" height="0.5" rx="1" fill="#1a1a19" stroke="#199e70" stroke-width="1.5"/>
<line x1="784.0" y1="239.0" x2="784.0" y2="239.0" stroke="#199e70" stroke-width="1"/>
<rect x="777.8" y="239.0" width="12.5" height="0.5" rx="1" fill="#1a1a19" stroke="#199e70" stroke-width="1.5"/>
<rect x="0.5" y="0.5" width="879" height="439" rx="8" fill="none" stroke="rgba(255,255,255,0.10)"/>
</svg>
