<svg xmlns="http://www.w3.org/2000/svg" width="880" height="440" viewBox="0 0 880 440" role="img" aria-label="Daily candlestick chart of GitHub stars for Mukbeast4/star-candles">
<rect width="880" height="440" rx="8" fill="#fcfcfb"/>
<text x="24" y="42" font-family="system-ui, -apple-system, 'Segoe UI', sans-serif" font-size="13" fill="#52514e">Mukbeast4/star-candles · Daily</text>
<text x="24" y="74" font-family="system-ui, -apple-system, 'Segoe UI', sans-serif"><tspan font-size="28" font-weight="600" fill="#0b0b0b">0</tspan><tspan dx="8" font-size="13" fill="#52514e">stars</tspan></text>
<line x1="24.0" y1="390.0" x2="792.0" y2="390.0" stroke="#e1e0d9" stroke-width="1"/>
<text x="802.0" y="390.0" dy="0.35em" font-family="system-ui, -apple-system, 'Segoe UI', sans-serif" font-size="11" fill="#898781" style="font-variant-numeric: tabular-nums">0</text>
<line x1="24.0" y1="88.0" x2="792.0" y2="88.0" stroke="#e1e0d9" stroke-width="1"/>
<text x="802.0" y="88.0" dy="0.35em" font-family="system-ui, -apple-system, 'Segoe UI', sans-serif" font-size="11" fill="#898781" style="font-variant-numeric: tabular-nums">1</text>
<line x1="38.8" y1="390.0" x2="38.8" y2="390.0" stroke="#199e70" stroke-width="1"/>
<rect x="27.5" y="390.0" width="22.5" height="0.5" rx="1" fill="#fcfcfb" stroke="#199e70" stroke-width="1.5"/>
<text x="38.8" y="408.0" text-anchor="middle" font-family="system-ui, -apple-system, 'Segoe UI', sans-serif" font-size="11" fill="#898781">Jul 28</text>
<line x1="68.3" y1="390.0" x2="68.3" y2="390.0" stroke="#199e70" stroke-width="1"/>
<rect x="57.1" y="390.0" width="22.5" height="0.5" rx="1" fill="#fcfcfb" stroke="#199e70" stroke-width="1.5"/>
<line x1="97.8" y1="390.0" x2="97.8" y2="390.0" stroke="#199e70" stroke-width="1"/>
<rect x="86.6" y="390.0" width="22.5" height="0.5" rx="1" fill="#fcfcfb" stroke="#199e70" stroke-width="1.5"/>
<line x1="127.4" y1="390.0" x2="127.4" y2="390.0" stroke="#199e70" stroke-width="1"/>
<rect x="116.1" y="390.0" width="22.5" height="0.5" rx="1" fill="#fcfcfb" stroke="#199e70" stroke-width="1.5"/>
<line x1="156.9" y1="390.0" x2="156.9" y2="390.0" stroke="#199e70" stroke-width="1"/>
<rect x="145.7" y="390.0" width="22.5" height="0.5" rx="1" fill="#fcfcfb" stroke="#199e70" stroke-width="1.5"/>
<line x1="186.5" y1="390.0" x2="186.5" y2="390.0" stroke="#199e70" stroke-width="1"/>
<rect x="175.2" y="390.0" width="22.5" height="0.5" rx="1" fill="#fcfcfb" stroke="#199e70" stroke-width="1.5"/>
<text x="186.5" y="408.0" text-anchor="middle" font-family="system-ui, -apple-system, 'Segoe UI', sans-serif" font-size="11" fill="#898781">Aug 2</text>
<line x1="216.0" y1="390.0" x2="216.0" y2="390.0" stroke="#199e70" stroke-width="1"/>
<rect x="204.8" y="390.0" width="22.5" height="0.5" rx="1" fill="#fcfcfb" stroke="#199e70" stroke-width="1.5"/>
<line x1="245.5" y1="390.0" x2="245.5" y2="390.0" stroke="#199e70" stroke-width="1"/>
<rect x="234.3" y="390.0" width="22.5" height="0.5" rx="1" fill="#fcfcfb" stroke="#199e70" stroke-width="1.5"/>
<line x1="275.1" y1="390.0" x2="275.1" y2="390.0" stroke="#199e70" stroke-width="1"/>
<rect x="263.8" y="390.0" width="22.5" height="0.5" rx="1" fill="#fcfcfb" stroke="#199e70" stroke-width="1.5"/>
<line x1="304.6" y1="390.0" x2="304.6" y2="390.0" stroke="#199e70" stroke-width="1"/>
<rect x="293.4" y="390.0" width="22.5" height="0.5" rx="1" fill="#fcfcfb" stroke="#199e70" stroke-width="1.5"/>
<line x1="334.2" y1="390.0" x2="334.2" y2="390.0" stroke="#199e70" stroke-width="1"/>
<rect x="322.9" y="390.0" width="22.5" height="0.5" rx="1" fill="#fcfcfb" stroke="#199e70" stroke-width="1.5"/>
<text x="334.2" y="408.0" text-anchor="middle" font-family="system-ui, -apple-system, 'Segoe UI', sans-serif" font-size="11" fill="#898781">Aug 7</text>
<line x1="363.7" y1="390.0" x2="363.7" y2="390.0" stroke="#199e70" stroke-width="1"/>
<rect x="352.4" y="390.0" width="22.5" height="0.5" rx="1" fill="#fcfcfb" stroke="#199e70" stroke-width="1.5"/>
<line x1="393.2" y1="390.0" x2="393.2" y2="390.0" stroke="#199e70" stroke-width="1"/>
<rect x="382.0" y="390.0" width="22.5" height="0.5" rx="1" fill="#fcfcfb" stroke="#199e70" stroke-width="1.5"/>
<line x1="422.8" y1="390.0" x2="422.8" y2="390.0" stroke="#199e70" stroke-width="1"/>
<rect x="411.5" y="390.0" width="22.5" height="0.5" rx="1" fill="#fcfcfb" stroke="#199e70" stroke-width="1.5"/>
<line x1="452.3" y1="390.0" x2="452.3" y2="390.0" stroke="#199e70" stroke-width="1"/>
<rect x="441.1" y="390.0" width="22.5" height="0.5" rx="1" fill="#fcfcfb" stroke="#199e70" stroke-width="1.5"/>
<line x1="481.8" y1="390.0" x2="481.8" y2="390.0" stroke="#199e70" stroke-width="1"/>
<rect x="470.6" y="390.0" width="22.5" height="0.5" rx="1" fill="#fcfcfb" stroke="#199e70" stroke-width="1.5"/>
<text x="481.8" y="408.0" text-anchor="middle" font-family="system-ui, -apple-system, 'Segoe UI', sans-serif" font-size="11" fill="#898781">Aug 12</text>
<line x1="511.4" y1="390.0" x2="511.4" y2="390.0" stroke="#199e70" stroke-width="1"/>
<rect x="500.1" y="390.0" width="22.5" height="0.5" rx="1" fill="#fcfcfb" stroke="#199e70" stroke-width="1.5"/>
<line x1="540.9" y1="390.0" x2="540.9" y2="390.0" stroke="#199e70" stroke-width="1"/>
<rect x="529.7" y="390.0" width="22.5" height="0.5" rx="1" fill="#fcfcfb" stroke="#199e70" stroke-width="1.5"/>
<line x1="570.5" y1="390.0" x2="570.5" y2="390.0" stroke="#199e70" stroke-width="1"/>
<rect x="559.2" y="390.0" width="22.5" height="0.5" rx="1" fill="#fcfcfb" stroke="#199e70" stroke-width="1.5"/>
<line x1="600.0" y1="390.0" x2="600.0" y2="390.0" stroke="#199e70" stroke-width="1"/>
<rect x="588.8" y="390.0" width="22.5" height="0.5" rx="1" fill="#fcfcfb" stroke="#199e70" stroke-width="1.5"/>
<line x1="629.5" y1="390.0" x2="629.5" y2="390.0" stroke="#199e70" stroke-width="1"/>
<rect x="618.3" y="390.0" width="22.5" height="0.5" rx="1" fill="#fcfcfb" stroke="#199e70" stroke-width="1.5"/>
<text x="629.5" y="408.0" text-anchor="middle" font-family="system-ui, -apple-system, 'Segoe UI', sans-serif" font-size="11" fill="#898781">Aug 17</text>
<line x1="659.1" y1="390.0" x2="659.1" y2="390.0" stroke="#199e70" stroke-width="1"/>
<rect x="647.8" y="390.0" width="22.5" height="0.5" rx="1" fill="#fcfcfb" stroke="#199e70" stroke-width="1.5"/>
<line x1="688.6" y1="390.0" x2="688.6" y2="390.0" stroke="#199e70" stroke-width="1"/>
<rect x="677.4" y="390.0" width="22.5" height="0.5" rx="1" fill="#fcfcfb" stroke="#199e70" stroke-width="1.5"/>
<line x1="718.2" y1="390.0" x2="718.2" y2="390.0" stroke="#199e70" stroke-width="1"/>
<rect x="706.9" y="390.0" width="22.5" height="0.5" rx="1" fill="#fcfcfb" stroke="#199e70" stroke-width="1.5"/>
<line x1="747.7" y1="390.0" x2="747.7" y2="390.0" stroke="#199e70" stroke-width="1"/>
<rect x="736.4" y="390.0" width="22.5" height="0.5" rx="1" fill="#fcfcfb" stroke="#199e70" stroke-width="1.5"/>
<line x1="777.2" y1="390.0" x2="777.2" y2="390.0" stroke="#199e70" stroke-width="1"/>
<rect x="766.0" y="390.0" width="22.5" height="0.5" rx="1" fill="#fcfcfb" stroke="#199e70" stroke-width="1.5"/>
<text x="777.2" y="408.0" text-anchor="middle" font-family="system-ui, -apple-system, 'Segoe UI', sans-serif" font-size="11" fill="#898781">Aug 22</text>
<rect x="0.5" y="0.5" width="879" height="439" rx="8" fill="none" stroke="rgba(11,11,11,0.10)"/>
</svg>
