<svg xmlns="http://www.w3.org/2000/svg" width="880" height="440" viewBox="0 0 880 440" role="img" aria-label="Daily candlestick chart of GitHub stars for Mukbeast4/star-candles">
<rect width="880" height="440" rx="8" fill="#fcfcfb"/>
<text x="24" y="42" font-family="system-ui, -apple-system, 'Segoe UI', sans-serif" font-size="13" fill="#52514e">Mukbeast4/star-candles · Daily</text>
<text x="24" y="74" font-family="system-ui, -apple-system, 'Segoe UI', sans-serif"><tspan font-size="28" font-weight="600" fill="#0b0b0b">1</tspan><tspan dx="8" font-size="13" fill="#52514e">stars</tspan></text>
<line x1="24.0" y1="390.0" x2="792.0" y2="390.0" stroke="#e1e0d9" stroke-width="1"/>
<text x="802.0" y="390.0" dy="0.35em" font-family="system-ui, -apple-system, 'Segoe UI', sans-serif" font-size="11" fill="#898781" style="font-variant-numeric: tabular-nums">0</text>
<line x1="24.0" y1="239.0" x2="792.0" y2="239.0" stroke="#e1e0d9" stroke-width="1"/>
<text x="802.0" y="239.0" dy="0.35em" font-family="system-ui, -apple-system, 'Segoe UI', sans-serif" font-size="11" fill="#898781" style="font-variant-numeric: tabular-nums">1</text>
<line x1="24.0" y1="88.0" x2="792.0" y2="88.0" stroke="#e1e0d9" stroke-width="1"/>
<text x="802.0" y="88.0" dy="0.35em" font-family="system-ui, -apple-system, 'Segoe UI', sans-serif" font-size="11" fill="#898781" style="font-variant-numeric: tabular-nums">2</text>
<line x1="31.0" y1="390.0" x2="31.0" y2="390.0" stroke="#199e70" stroke-width="1"/>
<rect x="25.8" y="390.0" width="10.5" height="0.5" rx="1" fill="#fcfcfb" stroke="#199e70" stroke-width="1.5"/>
<text x="31.0" y="408.0" text-anchor="middle" font-family="system-ui, -apple-system, 'Segoe UI', sans-serif" font-size="11" fill="#898781">Jul 28</text>
<line x1="44.9" y1="390.0" x2="44.9" y2="390.0" stroke="#199e70" stroke-width="1"/>
<rect x="39.7" y="390.0" width="10.5" height="0.5" rx="1" fill="#fcfcfb" stroke="#199e70" stroke-width="1.5"/>
<line x1="58.9" y1="390.0" x2="58.9" y2="390.0" stroke="#199e70" stroke-width="1"/>
<rect x="53.7" y="390.0" width="10.5" height="0.5" rx="1" fill="#fcfcfb" stroke="#199e70" stroke-width="1.5"/>
<line x1="72.9" y1="390.0" x2="72.9" y2="390.0" stroke="#199e70" stroke-width="1"/>
<rect x="67.6" y="390.0" width="10.5" height="0.5" rx="1" fill="#fcfcfb" stroke="#199e70" stroke-width="1.5"/>
<line x1="86.8" y1="390.0" x2="86.8" y2="390.0" stroke="#199e70" stroke-width="1"/>
<rect x="81.6" y="390.0" width="10.5" height="0.5" rx="1" fill="#fcfcfb" stroke="#199e70" stroke-width="1.5"/>
<line x1="100.8" y1="390.0" x2="100.8" y2="390.0" stroke="#199e70" stroke-width="1"/>
<rect x="95.6" y="390.0" width="10.5" height="0.5" rx="1" fill="#fcfcfb" stroke="#199e70" stroke-width="1.5"/>
<line x1="114.8" y1="390.0" x2="114.8" y2="390.0" stroke="#199e70" stroke-width="1"/>
<rect x="109.5" y="390.0" width="10.5" height="0.5" rx="1" fill="#fcfcfb" stroke="#199e70" stroke-width="1.5"/>
<line x1="128.7" y1="390.0" x2="128.7" y2="390.0" stroke="#199e70" stroke-width="1"/>
<rect x="123.5" y="390.0" width="10.5" height="0.5" rx="1" fill="#fcfcfb" stroke="#199e70" stroke-width="1.5"/>
<line x1="142.7" y1="390.0" x2="142.7" y2="390.0" stroke="#199e70" stroke-width="1"/>
<rect x="137.5" y="390.0" width="10.5" height="0.5" rx="1" fill="#fcfcfb" stroke="#199e70" stroke-width="1.5"/>
<line x1="156.7" y1="390.0" x2="156.7" y2="390.0" stroke="#199e70" stroke-width="1"/>
<rect x="151.4" y="390.0" width="10.5" height="0.5" rx="1" fill="#fcfcfb" stroke="#199e70" stroke-width="1.5"/>
<line x1="170.6" y1="390.0" x2="170.6" y2="390.0" stroke="#199e70" stroke-width="1"/>
<rect x="165.4" y="390.0" width="10.5" height="0.5" rx="1" fill="#fcfcfb" stroke="#199e70" stroke-width="1.5"/>
<text x="170.6" y="408.0" text-anchor="middle" font-family="system-ui, -apple-system, 'Segoe UI', sans-serif" font-size="11" fill="#898781">Aug 7</text>
<line x1="184.6" y1="390.0" x2="184.6" y2="390.0" stroke="#199e70" stroke-width="1"/>
<rect x="179.3" y="390.0" width="10.5" height="0.5" rx="1" fill="#fcfcfb" stroke="#199e70" stroke-width="1.5"/>
<line x1="198.5" y1="390.0" x2="198.5" y2="390.0" stroke="#199e70" stroke-width="1"/>
<rect x="193.3" y="390.0" width="10.5" height="0.5" rx="1" fill="#fcfcfb" stroke="#199e70" stroke-width="1.5"/>
<line x1="212.5" y1="390.0" x2="212.5" y2="390.0" stroke="#199e70" stroke-width="1"/>
<rect x="207.3" y="390.0" width="10.5" height="0.5" rx="1" fill="#fcfcfb" stroke="#199e70" stroke-width="1.5"/>
<line x1="226.5" y1="390.0" x2="226.5" y2="390.0" stroke="#199e70" stroke-width="1"/>
<rect x="221.2" y="390.0" width="10.5" height="0.5" rx="1" fill="#fcfcfb" stroke="#199e70" stroke-width="1.5"/>
<line x1="240.4" y1="390.0" x2="240.4" y2="390.0" stroke="#199e70" stroke-width="1"/>
<rect x="235.2" y="390.0" width="10.5" height="0.5" rx="1" fill="#fcfcfb" stroke="#199e70" stroke-width="1.5"/>
<line x1="254.4" y1="390.0" x2="254.4" y2="390.0" stroke="#199e70" stroke-width="1"/>
<rect x="249.2" y="390.0" width="10.5" height="0.5" rx="1" fill="#fcfcfb" stroke="#199e70" stroke-width="1.5"/>
<line x1="268.4" y1="390.0" x2="268.4" y2="390.0" stroke="#199e70" stroke-width="1"/>
<rect x="263.1" y="390.0" width="10.5" height="0.5" rx="1" fill="#fcfcfb" stroke="#199e70" stroke-width="1.5"/>
<line x1="282.3" y1="390.0" x2="282.3" y2="390.0" stroke="#199e70" stroke-width="1"/>
<rect x="277.1" y="390.0" width="10.5" height="0.5" rx="1" fill="#fcfcfb" stroke="#199e70" stroke-width="1.5"/>
<line x1="296.3" y1="390.0" x2="296.3" y2="390.0" stroke="#199e70" stroke-width="1"/>
<rect x="291.1" y="390.0" width="10.5" height="0.5" rx="1" fill="#fcfcfb" stroke="#199e70" stroke-width="1.5"/>
<line x1="310.3" y1="390.0" x2="310.3" y2="390.0" stroke="#199e70" stroke-width="1"/>
<rect x="305.0" y="390.0" width="10.5" height="0.5" rx="1" fill="#fcfcfb" stroke="#199e70" stroke-width="1.5"/>
<text x="310.3" y="408.0" text-anchor="middle" font-family="system-ui, -apple-system, 'Segoe UI', sans-serif" font-size="11" fill="#898781">Aug 17</text>
<line x1="324.2" y1="390.0" x2="324.2" y2="390.0" stroke="#199e70" stroke-width="1"/>
<rect x="319.0" y="390.0" width="10.5" height="0.5" rx="1" fill="#fcfcfb" stroke="#199e70" stroke-width="1.5"/>
<line x1="338.2" y1="390.0" x2="338.2" y2="390.0" stroke="#199e70" stroke-width="1"/>
<rect x="332.9" y="390.0" width="10.5" height="0.5" rx="1" fill="#fcfcfb" stroke="#199e70" stroke-width="1.5"/>
<line x1="352.1" y1="390.0" x2="352.1" y2="390.0" stroke="#199e70" stroke-width="1"/>
<rect x="346.9" y="390.0" width="10.5" height="0.5" rx="1" fill="#fcfcfb" stroke="#199e70" stroke-width="1.5"/>
<line x1="366.1" y1="390.0" x2="366.1" y2="390.0" stroke="#199e70" stroke-width="1"/>
<rect x="360.9" y="390.0" width="10.5" height="0.5" rx="1" fill="#fcfcfb" stroke="#199e70" stroke-width="1.5"/>
<line x1="380.1" y1="390.0" x2="380.1" y2="390.0" stroke="#199e70" stroke-width="1"/>
<rect x="374.8" y="390.0" width="10.5" height="0.5" rx="1" fill="#fcfcfb" stroke="#199e70" stroke-width="1.5"/>
<line x1="394.0" y1="239.0" x2="394.0" y2="390.0" stroke="#199e70" stroke-width="1"/>
<rect x="388.8" y="239.8" width="10.5" height="149.5" rx="1" fill="#fcfcfb" stroke="#199e70" stroke-width="1.5"/>
<line x1="408.0" y1="239.0" x2="408.0" y2="239.0" stroke="#199e70" stroke-width="1"/>
<rect x="402.8" y="239.0" width="10.5" height="0.5" rx="1" fill="#fcfcfb" stroke="#199e70" stroke-width="1.5"/>
<line x1="422.0" y1="239.0" x2="422.0" y2="239.0" stroke="#199e70" stroke-width="1"/>
<rect x="416.7" y="239.0" width="10.5" height="0.5" rx="1" fill="#fcfcfb" stroke="#199e70" stroke-width="1.5"/>
<line x1="435.9" y1="239.0" x2="435.9" y2="239.0" stroke="#199e70" stroke-width="1"/>
<rect x="430.7" y="239.0" width="10.5" height="0.5" rx="1" fill="#fcfcfb" stroke="#199e70" stroke-width="1.5"/>
<line x1="449.9" y1="239.0" x2="449.9" y2="239.0" stroke="#199e70" stroke-width="1"/>
<rect x="444.7" y="239.0" width="10.5" height="0.5" rx="1" fill="#fcfcfb" stroke="#199e70" stroke-width="1.5"/>
<text x="449.9" y="408.0" text-anchor="middle" font-family="system-ui, -apple-system, 'Segoe UI', sans-serif" font-size="11" fill="#898781">Aug 27</text>
<line x1="463.9" y1="239.0" x2="463.9" y2="239.0" stroke="#199e70" stroke-width="1"/>
<rect x="458.6" y="239.0" width="10.5" height="0.5" rx="1" fill="#fcfcfb" stroke="#199e70" stroke-width="1.5"/>
<line x1="477.8" y1="239.0" x2="477.8" y2="239.0" stroke="#199e70" stroke-width="1"/>
<rect x="472.6" y="239.0" width="10.5" height="0.5" rx="1" fill="#fcfcfb" stroke="#199e70" stroke-width="1.5"/>
<line x1="491.8" y1="239.0" x2="491.8" y2="239.0" stroke="#199e70" stroke-width="1"/>
<rect x="486.5" y="239.0" width="10.5" height="0.5" rx="1" fill="#fcfcfb" stroke="#199e70" stroke-width="1.5"/>
<line x1="505.7" y1="239.0" x2="505.7" y2="239.0" stroke="#199e70" stroke-width="1"/>
<rect x="500.5" y="239.0" width="10.5" height="0.5" rx="1" fill="#fcfcfb" stroke="#199e70" stroke-width="1.5"/>
<line x1="519.7" y1="239.0" x2="519.7" y2="239.0" stroke="#199e70" stroke-width="1"/>
<rect x="514.5" y="239.0" width="10.5" height="0.5" rx="1" fill="#fcfcfb" stroke="#199e70" stroke-width="1.5"/>
<line x1="533.7" y1="239.0" x2="533.7" y2="239.0" stroke="#199e70" stroke-width="1"/>
<rect x="528.4" y="239.0" width="10.5" height="0.5" rx="1" fill="#fcfcfb" stroke="#199e70" stroke-width="1.5"/>
<line x1="547.6" y1="239.0" x2="547.6" y2="239.0" stroke="#199e70" stroke-width="1"/>
<rect x="542.4" y="239.0" width="10.5" height="0.5" rx="1" fill="#fcfcfb" stroke="#199e70" stroke-width="1.5"/>
<line x1="561.6" y1="239.0" x2="561.6" y2="239.0" stroke="#199e70" stroke-width="1"/>
<rect x="556.4" y="239.0" width="10.5" height="0.5" rx="1" fill="#fcfcfb" stroke="#199e70" stroke-width="1.5"/>
<line x1="575.6" y1="239.0" x2="575.6" y2="239.0" stroke="#199e70" stroke-width="1"/>
<rect x="570.3" y="239.0" width="10.5" height="0.5" rx="1" fill="#fcfcfb" stroke="#199e70" stroke-width="1.5"/>
<line x1="589.5" y1="239.0" x2="589.5" y2="239.0" stroke="#199e70" stroke-width="1"/>
<rect x="584.3" y="239.0" width="10.5" height="0.5" rx="1" fill="#fcfcfb" stroke="#199e70" stroke-width="1.5"/>
<text x="589.5" y="408.0" text-anchor="middle" font-family="system-ui, -apple-system, 'Segoe UI', sans-serif" font-size="11" fill="#898781">Sep 6</text>
<line x1="603.5" y1="239.0" x2="603.5" y2="239.0" stroke="#199e70" stroke-width="1"/>
<rect x="598.3" y="239.0" width="10.5" height="0.5" rx="1" fill="#fcfcfb" stroke="#199e70" stroke-width="1.5"/>
<line x1="617.5" y1="239.0" x2="617.5" y2="239.0" stroke="#199e70" stroke-width="1"/>
<rect x="612.2" y="239.0" width="10.5" height="0.5" rx="1" fill="#fcfcfb" stroke="#199e70" stroke-width="1.5"/>
<line x1="631.4" y1="239.0" x2="631.4" y2="239.0" stroke="#199e70" stroke-width="1"/>
<rect x="626.2" y="239.0" width="10.5" height="0.5" rx="1" fill="#fcfcfb" stroke="#199e70" stroke-width="1.5"/>
<line x1="645.4" y1="239.0" x2="645.4" y2="239.0" stroke="#199e70" stroke-width="1"/>
<rect x="640.1" y="239.0" width="10.5" height="0.5" rx="1" fill="#fcfcfb" stroke="#199e70" stroke-width="1.5"/>
<line x1="659.3" y1="239.0" x2="659.3" y2="239.0" stroke="#199e70" stroke-width="1"/>
<rect x="654.1" y="239.0" width="10.5" height="0.5" rx="1" fill="#fcfcfb" stroke="#199e70" stroke-width="1.5"/>
<line x1="673.3" y1="239.0" x2="673.3" y2="239.0" stroke="#199e70" stroke-width="1"/>
<rect x="668.1" y="239.0" width="10.5" height="0.5" rx="1" fill="#fcfcfb" stroke="#199e70" stroke-width="1.5"/>
<line x1="687.3" y1="239.0" x2="687.3" y2="239.0" stroke="#199e70" stroke-width="1"/>
<rect x="682.0" y="239.0" width="10.5" height="0.5" rx="1" fill="#fcfcfb" stroke="#199e70" stroke-width="1.5"/>
<line x1="701.2" y1="239.0" x2="701.2" y2="239.0" stroke="#199e70" stroke-width="1"/>
<rect x="696.0" y="239.0" width="10.5" height="0.5" rx="1" fill="#fcfcfb" stroke="#199e70" stroke-width="1.5"/>
<line x1="715.2" y1="239.0" x2="715.2" y2="239.0" stroke="#199e70" stroke-width="1"/>
<rect x="710.0" y="239.0" width="10.5" height="0.5" rx="1" fill="#fcfcfb" stroke="#199e70" stroke-width="1.5"/>
<line x1="729.2" y1="239.0" x2="729.2" y2="239.0" stroke="#199e70" stroke-width="1"/>
<rect x="723.9" y="239.0" width="10.5" height="0.5" rx="1" fill="#fcfcfb" stroke="#199e70" stroke-width="1.5"/>
<text x="729.2" y="408.0" text-anchor="middle" font-family="system-ui, -apple-system, 'Segoe UI', sans-serif" font-size="11" fill="#898781">Sep 16</text>
<line x1="743.1" y1="239.0" x2="743.1" y2="239.0" stroke="#199e70" stroke-width="1"/>
<rect x="737.9" y="239.0" width="10.5" height="0.5" rx="1" fill="#fcfcfb" stroke="#199e70" stroke-width="1.5"/>
<line x1="757.1" y1="239.0" x2="757.1" y2="239.0" stroke="#199e70" stroke-width="1"/>
<rect x="751.9" y="239.0" width="10.5" height="0.5" rx="1" fill="#fcfcfb" stroke="#199e70" stroke-width="1.5"/>
<line x1="771.1" y1="239.0" x2="771.1" y2="239.0" stroke="#199e70" stroke-width="1"/>
<rect x="765.8" y="239.0" width="10.5" height="0.5" rx="1" fill="#fcfcfb" stroke="#199e70" stroke-width="1.5"/>
<line x1="785.0" y1="239.0" x2="785.0" y2="239.0" stroke="#199e70" stroke-width="1"/>
<rect x="779.8" y="239.0" width="10.5" height="0.5" rx="1" fill="#fcfcfb" stroke="#199e70" stroke-width="1.5"/>
<rect x="0.5" y="0.5" width="879" height="439" rx="8" fill="none" stroke="rgba(11,11,11,0.10)"/>
</svg>
